<svg width="25" height="25" viewBox="0 0 25 25" fill="none" xmlns="http://www.w3.org/2000/svg">
<path fill-rule="evenodd" clip-rule="evenodd" d="M10.4167 2.08334C10.4169 1.8661 10.3491 1.65423 10.223 1.47739C10.0968 1.30055 9.91847 1.16758 9.71298 1.0971C9.50749 1.02661 9.28511 1.02213 9.07695 1.08429C8.86879 1.14645 8.68527 1.27213 8.55208 1.44376L1.26042 10.8188C1.11817 11.0016 1.04094 11.2267 1.04094 11.4583C1.04094 11.69 1.11817 11.9151 1.26042 12.0979L8.55208 21.4729C8.68527 21.6445 8.86879 21.7702 9.07695 21.8324C9.28511 21.8945 9.50749 21.8901 9.71298 21.8196C9.91847 21.7491 10.0968 21.6161 10.223 21.4393C10.3491 21.2624 10.4169 21.0506 10.4167 20.8333V16.6771C16.0198 16.7938 18.7115 17.8573 20.0635 19.0135C21.349 20.1125 21.5844 21.4052 21.8292 22.7594L21.8927 23.1083C21.9395 23.358 22.0758 23.582 22.2762 23.7382C22.4765 23.8944 22.7271 23.972 22.9806 23.9564C23.2342 23.9407 23.4733 23.833 23.653 23.6534C23.8326 23.4739 23.9405 23.2348 23.9562 22.9813C24.1344 20.1188 23.8667 15.9708 21.8448 12.501C19.8823 9.13334 16.3479 6.54375 10.4167 6.27292V2.08334Z" fill="#F2F2F2"/>
</svg>
