<svg width="50" height="93" viewBox="0 0 50 93" fill="none" xmlns="http://www.w3.org/2000/svg">
<path d="M22.9 67C22.9 67 27.7 72.3 26.1 77.7H24.6C24.6 77.7 25.7 71.1 21.6 67.5L22.9 67Z" fill="#00F1C2" stroke="black" stroke-width="0.75" stroke-miterlimit="10" stroke-linecap="round" stroke-linejoin="round"/>
<path d="M12.5 53.7C12.5 53.7 9.70004 56.3 9.10004 58.5C9.10004 58.5 13.7 58.9 13.1 60.2C12.6 61.5 9.70004 61.4 9.10004 61.2C9.10004 61.2 10.9 65.8 19.8 62.2C28.7 58.5 20.6 51.8 20.6 51.8L12.5 53.7Z" fill="#00F1C2" stroke="black" stroke-width="0.75" stroke-miterlimit="10" stroke-linecap="round" stroke-linejoin="round"/>
<path d="M18.1 57.2C18.1 57.2 18.4 65 24.9 63.3C31.4 61.5 25 55.4 21.5 53.9" fill="#00F1C2"/>
<path d="M18.1 57.2C18.1 57.2 18.4 65 24.9 63.3C31.4 61.5 25 55.4 21.5 53.9" stroke="black" stroke-width="0.75" stroke-miterlimit="10" stroke-linecap="round" stroke-linejoin="round"/>
<path d="M14.6 56.9C14.6 56.9 14.3 57.9 14.9 58.1C15.5 58.3 16.4 57.7 16.2 56.9" stroke="black" stroke-width="0.75" stroke-miterlimit="10" stroke-linecap="round" stroke-linejoin="round"/>
<path d="M14.5001 64.5L10.7001 66.2L12.6001 69.2L15.4001 66.2L11.5001 74.6L19.4001 76.1L18.7001 66.5L21.1001 69.4L25.0001 66.5L19.4001 63.5L14.5001 64.5Z" fill="#FF9D23" stroke="black" stroke-width="0.75" stroke-miterlimit="10" stroke-linecap="round" stroke-linejoin="round"/>
<path d="M11.2001 67C11.2001 67 6.40005 68.1 3.80005 66.3L4.50006 68.4C4.50006 68.4 11.5001 69.8 12.6001 67.7L11.2001 67Z" fill="#00F1C2" stroke="black" stroke-width="0.75" stroke-miterlimit="10" stroke-linecap="round" stroke-linejoin="round"/>
<path d="M4.90005 71C6.39122 71 7.60007 68.8957 7.60007 66.3C7.60007 63.7043 6.39122 61.6 4.90005 61.6C3.40889 61.6 2.20007 63.7043 2.20007 66.3C2.20007 68.8957 3.40889 71 4.90005 71Z" stroke="white" stroke-width="0.75" stroke-miterlimit="10" stroke-linecap="round" stroke-linejoin="round"/>
<path d="M11.9 52.8C11.9 52.8 3.09998 54.1 6.79998 55C10.5 55.9 19.8 55 19.8 55C19.8 55 14.3 55 11.9 52.8Z" fill="#FF9D23" stroke="black" stroke-width="0.75" stroke-miterlimit="10" stroke-linecap="round" stroke-linejoin="round"/>
<path d="M12.2 51.7C12.2 51.7 12.8 46.8 19.2 48.2C19.6 48.3 20.1 48.4 20.6 48.6C24.1 49.8 23.2 54.7 23.2 54.7C23.2 54.7 16.7 57.2 11.9 52.8L12.2 51.7Z" fill="#FF9D23" stroke="black" stroke-width="0.75" stroke-miterlimit="10" stroke-linecap="round" stroke-linejoin="round"/>
<path d="M19.9 48.4C19.7 48.3 19.4 48.3 19.2 48.2C12.8 46.8 12.2 51.7 12.2 51.7L11.9 52.8C14.6 55.3 17.9 55.6 20.2 55.3C20.5 53.7 20.2 50.6 19.9 48.4Z" fill="white" stroke="black" stroke-width="0.75" stroke-miterlimit="10" stroke-linecap="round" stroke-linejoin="round"/>
<path d="M4.90002 60V72.4" stroke="white" stroke-width="0.75" stroke-miterlimit="10" stroke-linecap="round" stroke-linejoin="round"/>
<path d="M4.90005 60.4C5.23143 60.4 5.50006 60.1314 5.50006 59.8C5.50006 59.4686 5.23143 59.2 4.90005 59.2C4.56868 59.2 4.30005 59.4686 4.30005 59.8C4.30005 60.1314 4.56868 60.4 4.90005 60.4Z" fill="white"/>
<path d="M1.00003 66.7C1.3314 66.7 1.60004 66.4314 1.60004 66.1C1.60004 65.7686 1.3314 65.5 1.00003 65.5C0.66866 65.5 0.400024 65.7686 0.400024 66.1C0.400024 66.4314 0.66866 66.7 1.00003 66.7Z" fill="white"/>
<path d="M8.80002 67C9.02093 67 9.20004 66.8209 9.20004 66.6C9.20004 66.3791 9.02093 66.2 8.80002 66.2C8.5791 66.2 8.40002 66.3791 8.40002 66.6C8.40002 66.8209 8.5791 67 8.80002 67Z" fill="white"/>
<path d="M1.60001 63.2C1.93138 63.2 2.20001 62.9314 2.20001 62.6C2.20001 62.2686 1.93138 62 1.60001 62C1.26864 62 1 62.2686 1 62.6C1 62.9314 1.26864 63.2 1.60001 63.2Z" fill="white"/>
<path d="M8.60004 63.6C8.87618 63.6 9.10004 63.3761 9.10004 63.1C9.10004 62.8239 8.87618 62.6 8.60004 62.6C8.32389 62.6 8.10004 62.8239 8.10004 63.1C8.10004 63.3761 8.32389 63.6 8.60004 63.6Z" fill="white"/>
<path d="M7.60007 71.7C7.82098 71.7 8.00006 71.5209 8.00006 71.3C8.00006 71.0791 7.82098 70.9 7.60007 70.9C7.37915 70.9 7.20007 71.0791 7.20007 71.3C7.20007 71.5209 7.37915 71.7 7.60007 71.7Z" fill="white"/>
<path d="M2.10004 71.4C2.37618 71.4 2.60004 71.1761 2.60004 70.9C2.60004 70.6239 2.37618 70.4 2.10004 70.4C1.82389 70.4 1.60004 70.6239 1.60004 70.9C1.60004 71.1761 1.82389 71.4 2.10004 71.4Z" fill="white"/>
<path d="M0.700029 72.1C0.700029 72.1 -0.499995 76.7 2.3 81.1C5.1 85.5 6.50002 91.5 6.50002 91.5C6.50002 91.5 40.7 92.7 43.4 91.5C43.4 91.5 48.9 81.6 48.7 78.3C48.7 78.3 36 78.7 21.7 75.3C7.40003 71.9 0.700029 72.1 0.700029 72.1Z" fill="#7474F5" stroke="black" stroke-width="0.75" stroke-miterlimit="10" stroke-linecap="round" stroke-linejoin="round"/>
<path d="M2.10004 70.9L8.20004 63.1" stroke="white" stroke-width="0.75" stroke-miterlimit="10" stroke-linecap="round" stroke-linejoin="round"/>
<path d="M2.20007 62.6L7.60007 71.3" stroke="white" stroke-width="0.75" stroke-miterlimit="10" stroke-linecap="round" stroke-linejoin="round"/>
<path d="M1.30005 66.1L8.80005 66.6" stroke="white" stroke-width="0.75" stroke-miterlimit="10" stroke-linecap="round" stroke-linejoin="round"/>
<path d="M16.1 0.899994V13.2L23.3 17.8L16.1 0.899994Z" stroke="#7474F5" stroke-width="0.75" stroke-miterlimit="10" stroke-linecap="round" stroke-linejoin="round"/>
<path d="M16.1 0.899994L8.90002 17.8L16.1 13.2V0.899994Z" stroke="#7474F5" stroke-width="0.75" stroke-miterlimit="10" stroke-linecap="round" stroke-linejoin="round"/>
<path d="M16.1 25.8V34.2L23.3 19.8L16.1 25.8Z" stroke="#7474F5" stroke-width="0.75" stroke-miterlimit="10" stroke-linecap="round" stroke-linejoin="round"/>
<path d="M16.1 34.1V25.7L8.90002 19.7L16.1 34.1Z" stroke="#7474F5" stroke-width="0.75" stroke-miterlimit="10" stroke-linecap="round" stroke-linejoin="round"/>
<path d="M16.1 23.9L23.3 17.9L16.1 13.3V23.9Z" stroke="#7474F5" stroke-width="0.75" stroke-miterlimit="10" stroke-linecap="round" stroke-linejoin="round"/>
<path d="M8.90002 17.8L16.1 23.8V13.1L8.90002 17.8Z" stroke="#7474F5" stroke-width="0.75" stroke-miterlimit="10" stroke-linecap="round" stroke-linejoin="round"/>
<path d="M16.1 0.899994V13.2L23.3 17.8L16.1 0.899994Z" fill="#7474F5" fill-opacity="0.602" stroke="#7474F5" stroke-width="0.75" stroke-miterlimit="10" stroke-linecap="round" stroke-linejoin="round"/>
<path d="M16.1 0.899994L8.90002 17.8L16.1 13.2V0.899994Z" fill="#ED5A88" stroke="#7474F5" stroke-width="0.75" stroke-miterlimit="10" stroke-linecap="round" stroke-linejoin="round"/>
<path d="M16.1 25.8V34.2L23.3 19.8L16.1 25.8Z" fill="#7474F5" fill-opacity="0.602" stroke="#7474F5" stroke-width="0.75" stroke-miterlimit="10" stroke-linecap="round" stroke-linejoin="round"/>
<path d="M16.1 34.1V25.7L8.90002 19.7L16.1 34.1Z" fill="#ED5A88" stroke="#7474F5" stroke-width="0.75" stroke-miterlimit="10" stroke-linecap="round" stroke-linejoin="round"/>
<path d="M16.1 23.9L23.3 17.9L16.1 13.3V23.9Z" fill="#7474F5" fill-opacity="0.2" stroke="#7474F5" stroke-width="0.75" stroke-miterlimit="10" stroke-linecap="round" stroke-linejoin="round"/>
<path d="M8.90002 17.8L16.1 23.8V13.1L8.90002 17.8Z" fill="#7474F5" fill-opacity="0.602" stroke="#7474F5" stroke-width="0.75" stroke-miterlimit="10" stroke-linecap="round" stroke-linejoin="round"/>
</svg>
