<svg width="91" height="107" viewBox="0 0 91 107" fill="none" xmlns="http://www.w3.org/2000/svg">
<path d="M53.0977 1V13.3L60.2977 17.9L53.0977 1Z" stroke="#7474F5" stroke-width="0.75" stroke-miterlimit="10" stroke-linecap="round" stroke-linejoin="round"/>
<path d="M53.0975 1L45.8975 17.9L53.0975 13.3V1Z" stroke="#7474F5" stroke-width="0.75" stroke-miterlimit="10" stroke-linecap="round" stroke-linejoin="round"/>
<path d="M53.0977 25.8999V34.2999L60.2977 19.8999L53.0977 25.8999Z" stroke="#7474F5" stroke-width="0.75" stroke-miterlimit="10" stroke-linecap="round" stroke-linejoin="round"/>
<path d="M53.0975 34.2V25.8L45.8975 19.8L53.0975 34.2Z" stroke="#7474F5" stroke-width="0.75" stroke-miterlimit="10" stroke-linecap="round" stroke-linejoin="round"/>
<path d="M53.0977 23.9999L60.2977 17.9999L53.0977 13.3999V23.9999V23.9999Z" stroke="#7474F5" stroke-width="0.75" stroke-miterlimit="10" stroke-linecap="round" stroke-linejoin="round"/>
<path d="M45.8975 17.9001L53.0975 23.9001V13.3L45.8975 17.9001Z" stroke="#7474F5" stroke-width="0.75" stroke-miterlimit="10" stroke-linecap="round" stroke-linejoin="round"/>
<path d="M53.0977 1V13.3L60.2977 17.9L53.0977 1Z" fill="#7474F5" fill-opacity="0.602" stroke="#7474F5" stroke-width="0.75" stroke-miterlimit="10" stroke-linecap="round" stroke-linejoin="round"/>
<path d="M53.0975 1L45.8975 17.9L53.0975 13.3V1Z" fill="#ED5A88" stroke="#7474F5" stroke-width="0.75" stroke-miterlimit="10" stroke-linecap="round" stroke-linejoin="round"/>
<path d="M53.0977 25.8999V34.2999L60.2977 19.8999L53.0977 25.8999Z" fill="#7474F5" fill-opacity="0.602" stroke="#7474F5" stroke-width="0.75" stroke-miterlimit="10" stroke-linecap="round" stroke-linejoin="round"/>
<path d="M53.0975 34.2V25.8L45.8975 19.8L53.0975 34.2Z" fill="#ED5A88" stroke="#7474F5" stroke-width="0.75" stroke-miterlimit="10" stroke-linecap="round" stroke-linejoin="round"/>
<path d="M53.0977 23.9999L60.2977 17.9999L53.0977 13.3999V23.9999V23.9999Z" fill="#7474F5" fill-opacity="0.2" stroke="#7474F5" stroke-width="0.75" stroke-miterlimit="10" stroke-linecap="round" stroke-linejoin="round"/>
<path d="M45.8975 17.9001L53.0975 23.9001V13.3L45.8975 17.9001Z" fill="#7474F5" fill-opacity="0.602" stroke="#7474F5" stroke-width="0.75" stroke-miterlimit="10" stroke-linecap="round" stroke-linejoin="round"/>
<path d="M61.0977 63.4001L76.5977 94.8001" stroke="#FF9D23" stroke-width="0.75" stroke-miterlimit="10" stroke-linecap="round" stroke-linejoin="round"/>
<path d="M57.6973 57.5002C57.6973 57.5002 66.4973 55.6002 67.4973 58.4002C68.4973 61.2002 57.6973 59.6002 57.6973 59.6002" fill="#00F1C2"/>
<path d="M57.6973 57.5002C57.6973 57.5002 66.4973 55.6002 67.4973 58.4002C68.4973 61.2002 57.6973 59.6002 57.6973 59.6002" stroke="black" stroke-width="0.75" stroke-miterlimit="10" stroke-linecap="round" stroke-linejoin="round"/>
<path d="M52.5977 69.0001C52.5977 69.0001 61.0977 71.0001 63.7977 68.1001V70.7001C63.7977 70.7001 56.6977 72.8001 52.5977 70.7001V69.0001V69.0001Z" fill="#00F1C2" stroke="black" stroke-width="0.75" stroke-miterlimit="10" stroke-linecap="round" stroke-linejoin="round"/>
<path d="M49.6969 58.9001C49.6969 58.9001 45.8969 59.8001 46.8969 66.3001C47.3969 69.3001 44.0969 76.3001 43.2969 82.2001H56.4969L52.6969 67.8001C52.6969 67.8001 61.4969 67.4001 62.4969 62.3001C64.2969 53.3001 51.9969 56.7001 51.9969 56.7001L49.6969 58.9001Z" fill="#00F1C2" stroke="black" stroke-width="0.75" stroke-miterlimit="10" stroke-linecap="round" stroke-linejoin="round"/>
<path d="M49.8974 57.5002C49.8974 57.5002 37.5974 55.5002 40.8974 59.6002C44.1974 63.7002 53.4974 59.6002 53.4974 59.6002" fill="#00F1C2"/>
<path d="M49.8974 57.5002C49.8974 57.5002 37.5974 55.5002 40.8974 59.6002C44.1974 63.7002 53.4974 59.6002 53.4974 59.6002" stroke="black" stroke-width="0.75" stroke-miterlimit="10" stroke-linecap="round" stroke-linejoin="round"/>
<path d="M47.6973 55.1002C47.6973 55.1002 37.2973 56.6002 43.1973 57.6002C49.0973 58.6002 68.2973 59.8002 66.0973 55.1002C66.0973 55.1002 56.4973 52.3002 47.6973 55.1002Z" fill="#7474F5" stroke="black" stroke-width="0.75" stroke-miterlimit="10" stroke-linecap="round" stroke-linejoin="round"/>
<path d="M47.3971 56.7001L48.9971 51.3001L49.8971 47.2001L44.1971 50.4001L42.9971 51.2001L45.8971 48.2001L48.6971 45.1001L52.2971 41.6001L52.9971 41.1001L55.1971 44.1001C55.1971 44.1001 56.8971 46.4001 56.9971 47.5001C57.0971 48.6001 58.4971 53.2001 59.3971 53.8001L61.3971 55.3001C61.2971 55.3001 54.2971 58.3001 47.3971 56.7001Z" fill="#7474F5" stroke="black" stroke-width="0.75" stroke-miterlimit="10" stroke-linecap="round" stroke-linejoin="round"/>
<path d="M46.9977 68.8C46.9977 68.8 34.1977 68.9001 35.8977 74.5001H37.8977C37.8977 74.5001 38.2977 71.6001 46.9977 70.0001V68.8Z" fill="#00F1C2" stroke="black" stroke-width="0.75" stroke-miterlimit="10" stroke-linecap="round" stroke-linejoin="round"/>
<path d="M55.8977 61.3C56.8977 61.3 56.8977 59.8 55.8977 59.8C54.9977 59.8 54.9977 61.3 55.8977 61.3Z" fill="black"/>
<path d="M43.2969 68.1001L44.2969 72.9001L45.8969 72.4001L43.3969 82.2001H56.5969L54.0969 72.7001L56.5969 73.7001L55.9969 68.5001L52.5969 68.7001C52.5969 68.7001 52.2969 70.7001 49.5969 70.4001C46.8969 70.1001 46.8969 68.9001 46.8969 68.9001L43.2969 68.1001Z" fill="#7474F5" stroke="black" stroke-width="0.75" stroke-miterlimit="10" stroke-linecap="round" stroke-linejoin="round"/>
<path d="M62.2975 60.9001C61.4975 60.9001 60.6975 60.9001 59.8975 60.9001" stroke="black" stroke-width="0.75" stroke-miterlimit="10" stroke-linecap="round" stroke-linejoin="round"/>
<path d="M21.8973 77.2C21.8973 77.2 19.5973 92.5001 43.3973 92.5001C67.1973 92.5001 76.6973 90.4 76.6973 75.8C76.6973 75.8 73.1973 78.8 70.3973 78.8C67.5973 78.8 28.4973 78.8 28.4973 78.8C28.4973 78.8 25.2973 79.3 21.8973 77.2Z" fill="#00F1C2" stroke="black" stroke-width="0.75" stroke-miterlimit="10" stroke-linecap="round" stroke-linejoin="round"/>
<path d="M74.2973 92.5002L76.3973 91.7002C76.3973 91.7002 80.8972 96.4002 78.9972 98.0002C77.0972 99.6002 75.8972 98.9002 75.0972 96.6002C74.1972 94.3002 74.2973 92.5002 74.2973 92.5002Z" fill="#FF9D23"/>
<path d="M84.397 84.2C81.597 86.9 77.297 87.2001 73.397 86.9001C69.497 86.6001 65.497 85.7 61.697 86.7C58.897 87.4 56.097 89.1 53.297 88.2C51.597 87.7 50.397 86.3 48.697 85.7C44.297 84.2 39.897 89.2001 35.297 88.3001C33.497 87.9001 31.997 86.7 30.297 85.7C28.697 84.8 26.497 84.3001 24.997 85.4001C24.497 85.8001 23.997 86.4 23.397 86.7C22.397 87.1 21.397 86.5001 20.497 86.0001C14.597 82.8001 6.89699 83.0001 1.19699 86.5001C1.19699 86.5001 -3.10301 93.6 4.59699 95.7C12.297 97.8 78.197 120.2 90.297 93.6C93.197 87.2 84.397 84.2 84.397 84.2Z" fill="black"/>
<path d="M1.29688 86.4C7.09688 82.9 14.6969 82.7 20.5969 85.9C21.4969 86.4 22.4969 87 23.4969 86.6C24.0969 86.4 24.4969 85.8 25.0969 85.3C26.5969 84.2 28.7969 84.7 30.3969 85.6C31.9969 86.5 33.4969 87.8 35.3969 88.2C39.9969 89.1 44.3969 84.1 48.7969 85.6C50.4969 86.2 51.6969 87.6 53.3969 88.1C56.0969 89 58.9969 87.3 61.7969 86.6C65.5969 85.6 69.5969 86.5 73.4969 86.8C77.3969 87.1 81.6969 86.8 84.4969 84.1" stroke="#7474F5" stroke-width="0.75" stroke-miterlimit="10" stroke-linecap="round" stroke-linejoin="round"/>
<path d="M29.1973 97.5002L41.2973 63.4001" stroke="#FF9D23" stroke-width="0.75" stroke-miterlimit="10" stroke-linecap="round" stroke-linejoin="round"/>
<path d="M29.8977 92.5002L31.9977 93.2002C31.9977 93.2002 32.2977 99.7003 29.8977 99.7003C27.4977 99.7003 26.9977 98.4002 27.7977 96.1002C28.5977 93.8002 29.8977 92.5002 29.8977 92.5002Z" fill="#FF9D23"/>
</svg>
