<svg fill="none" xmlns="http://www.w3.org/2000/svg" viewBox="0 0 25 25">
  <g clip-path="url(#a)">
    <path d="M21.164 4.68a20.83 20.83 0 0 0-5.089-1.553.078.078 0 0 0-.082.038c-.219.384-.463.885-.634 1.28a19.34 19.34 0 0 0-5.715 0A12.87 12.87 0 0 0 9 3.166a.08.08 0 0 0-.082-.04A20.814 20.814 0 0 0 3.83 4.678a.073.073 0 0 0-.033.028C.555 9.472-.333 14.12.103 18.71a.084.084 0 0 0 .032.058 20.863 20.863 0 0 0 6.243 3.104.08.08 0 0 0 .088-.027 14.41 14.41 0 0 0 1.277-2.045.077.077 0 0 0-.043-.108 13.758 13.758 0 0 1-1.95-.915.08.08 0 0 1-.04-.063.078.078 0 0 1 .032-.067c.13-.097.262-.198.387-.3a.078.078 0 0 1 .081-.01c4.091 1.838 8.521 1.838 12.564 0a.078.078 0 0 1 .082.01c.125.102.255.203.388.3a.079.079 0 0 1 .02.103.079.079 0 0 1-.026.027c-.623.358-1.271.662-1.951.914a.078.078 0 0 0-.043.109 16.34 16.34 0 0 0 1.276 2.044.08.08 0 0 0 .087.029 20.795 20.795 0 0 0 6.252-3.105.08.08 0 0 0 .034-.057c.52-5.306-.873-9.916-3.697-14.002a.062.062 0 0 0-.032-.029ZM8.354 15.914c-1.231 0-2.247-1.114-2.247-2.48 0-1.366.996-2.479 2.247-2.479 1.26 0 2.267 1.122 2.247 2.48 0 1.366-.996 2.479-2.247 2.479Zm8.308 0c-1.233 0-2.247-1.114-2.247-2.48 0-1.366.994-2.479 2.247-2.479 1.26 0 2.266 1.122 2.246 2.48 0 1.366-.985 2.479-2.247 2.479Z" fill="#F2F2F2"/>
  </g>
  <defs>
    <clipPath id="a">
      <path fill="#fff" d="M0 0h25v25H0z"/>
    </clipPath>
  </defs>
</svg>
