<svg id="Livello_1" data-name="Livello 1" xmlns="http://www.w3.org/2000/svg" viewBox="0 0 64.76 171.02"><path d="M45.37,109V4.54a3.26,3.26,0,0,0-3.26-3.25h-25a3.26,3.26,0,0,0-3.26,3.25V109a3.26,3.26,0,0,1-3.26,3.26H3.76A3.26,3.26,0,0,0,.5,115.53v50.94a3.26,3.26,0,0,0,3.26,3.26H9.84a3.25,3.25,0,0,0,3.25-3.26v-9.23A3.26,3.26,0,0,1,16.35,154h3.72a3.26,3.26,0,0,1,3.26,3.25v9.23a3.25,3.25,0,0,0,3.25,3.26h6.08a3.26,3.26,0,0,0,3.26-3.26v-9.23A3.26,3.26,0,0,1,39.18,154h3.71a3.26,3.26,0,0,1,3.26,3.25v9.23a3.26,3.26,0,0,0,3.26,3.26h6.08a3.26,3.26,0,0,0,3.26-3.26V115.53a3.26,3.26,0,0,0-3.26-3.26H48.62A3.25,3.25,0,0,1,45.37,109Z" fill="#6dc0a6" stroke="#010101" stroke-miterlimit="10"/><path d="M54.13,170.12a3.66,3.66,0,0,1-3.65-3.65v-9.23a2.86,2.86,0,0,0-2.86-2.86H43.9A2.86,2.86,0,0,0,41,157.24v9.23a3.66,3.66,0,0,1-3.65,3.65H31.31a3.65,3.65,0,0,1-3.65-3.65v-9.23a2.87,2.87,0,0,0-2.87-2.86H21.07a2.86,2.86,0,0,0-2.86,2.86v9.23a3.66,3.66,0,0,1-3.65,3.65H8.48a3.66,3.66,0,0,1-3.65-3.65V115.53a3.65,3.65,0,0,1,3.65-3.65h6.87A2.87,2.87,0,0,0,18.21,109V4.54A3.66,3.66,0,0,1,21.86.89h25a3.66,3.66,0,0,1,3.65,3.65V109a2.88,2.88,0,0,0,2.87,2.87h6.86a3.65,3.65,0,0,1,3.65,3.65v50.94a3.66,3.66,0,0,1-3.65,3.65Z" fill="#fff" stroke="#010101" stroke-miterlimit="10"/><path d="M46.83,1.29a3.26,3.26,0,0,1,3.26,3.25V109a3.26,3.26,0,0,0,3.26,3.26h6.86a3.26,3.26,0,0,1,3.26,3.26v50.94a3.26,3.26,0,0,1-3.26,3.26H54.13a3.25,3.25,0,0,1-3.25-3.26v-9.23A3.26,3.26,0,0,0,47.62,154H43.9a3.26,3.26,0,0,0-3.26,3.25v9.23a3.26,3.26,0,0,1-3.25,3.26H31.31a3.26,3.26,0,0,1-3.26-3.26v-9.23A3.26,3.26,0,0,0,24.79,154H21.07a3.25,3.25,0,0,0-3.25,3.25v9.23a3.26,3.26,0,0,1-3.26,3.26H8.48a3.26,3.26,0,0,1-3.26-3.26V115.53a3.26,3.26,0,0,1,3.26-3.26h6.87A3.25,3.25,0,0,0,18.6,109V4.54a3.26,3.26,0,0,1,3.26-3.25h25m0-.79h-25a4,4,0,0,0-4,4V109a2.48,2.48,0,0,1-2.47,2.47H8.48a4.05,4.05,0,0,0-4,4v50.94a4.05,4.05,0,0,0,4,4.05h6.08a4.05,4.05,0,0,0,4-4.05v-9.23a2.48,2.48,0,0,1,2.47-2.47h3.72a2.48,2.48,0,0,1,2.47,2.47v9.23a4.06,4.06,0,0,0,4,4.05h6.08a4.05,4.05,0,0,0,4-4.05v-9.23a2.48,2.48,0,0,1,2.47-2.47h3.72a2.48,2.48,0,0,1,2.47,2.47v9.23a4.05,4.05,0,0,0,4,4.05h6.08a4.06,4.06,0,0,0,4.05-4.05V115.53a4.06,4.06,0,0,0-4.05-4H53.35A2.47,2.47,0,0,1,50.88,109V4.54a4.05,4.05,0,0,0-4.05-4Z" fill="#827ab8" stroke="#010101" stroke-miterlimit="10"/></svg>