<svg width="25" height="24" viewBox="0 0 25 24" fill="none" xmlns="http://www.w3.org/2000/svg">
<path d="M21.2158 10.9092L11.9922 2.90381C11.9214 2.84277 11.8311 2.80859 11.7358 2.80859H9.5752C9.39453 2.80859 9.31152 3.0332 9.44824 3.15039L17.998 10.5723H3.71094C3.60352 10.5723 3.51562 10.6602 3.51562 10.7676V12.2324C3.51562 12.3398 3.60352 12.4277 3.71094 12.4277H17.9956L9.4458 19.8496C9.30908 19.9692 9.39209 20.1914 9.57275 20.1914H11.8066C11.853 20.1914 11.8994 20.1743 11.9336 20.1426L21.2158 12.0908C21.3003 12.0173 21.3681 11.9266 21.4145 11.8246C21.461 11.7227 21.485 11.612 21.485 11.5C21.485 11.388 21.461 11.2773 21.4145 11.1754C21.3681 11.0734 21.3003 10.9827 21.2158 10.9092V10.9092Z" fill="#F2F2F2"/>
</svg>
