<svg id="Livello_1" data-name="Livello 1" xmlns="http://www.w3.org/2000/svg" viewBox="0 0 193.88 180.94"><defs><style>.cls-1{fill:#fba6c3;stroke:#fff;stroke-width:0.5px;}.cls-2{fill:#ff9c23;}.cls-2,.cls-3,.cls-4,.cls-5,.cls-6,.cls-7,.cls-8{stroke:#000;stroke-linecap:round;stroke-width:0.75px;}.cls-2,.cls-3,.cls-4,.cls-5{stroke-linejoin:round;}.cls-3{fill:#7474f4;}.cls-4{fill:#8888e5;}.cls-5{fill:#00f0c1;}.cls-6{fill:#fff;}.cls-6,.cls-7,.cls-8{stroke-miterlimit:10;}.cls-7{fill:#00cfff;}.cls-8{fill:none;}</style></defs><path class="cls-1" d="M61,74.2C61,68.37,54.26,63.63,46,63.63a20.08,20.08,0,0,0-6.23,1c-1.84-3.26-5.9-5.53-10.62-5.53-5,0-9.25,2.55-10.92,6.12l-.76,0C8,65.18.25,69.56.25,75c0,5,6.57,9.11,15.06,9.72,1,7.11,9.31,12.66,19.42,12.66,10.78,0,19.52-6.32,19.52-14.1,0-.08,0-.15,0-.23C58.28,81.13,61,77.89,61,74.2Z" transform="translate(0 0)"/><polygon class="cls-2" points="90.71 104.01 88.58 144.41 100.75 152.35 120.99 145.81 120.99 102.05 90.71 104.01"/><path class="cls-3" d="M76.67,51.11S102.51-6.64,106.18,1.47c0,0,1.7-14.1,32.3,58.81Z" transform="translate(0 0)"/><path class="cls-4" d="M54.31,73.6S52.59,62.9,67.83,52.09s46.72-20.15,74.23-2c0,0,15,4.68,15.7,23.47" transform="translate(0 0)"/><path class="cls-3" d="M59.23,80.71S50.33,74,63.62,58.48,105.33,42,108.94,42.26s52.51,7.28,46.61,36c0,0-9,13.57-49.82,13.13S59.23,80.71,59.23,80.71Z" transform="translate(0 0)"/><path class="cls-5" d="M68.56,73.36s-20.39,34-17.44,38.69S62.33,131.43,82,107.87Z" transform="translate(0 0)"/><path class="cls-5" d="M144.28,73.36s20.39,34,17.44,38.69-11.21,19.38-30.89-4.18Z" transform="translate(0 0)"/><ellipse class="cls-5" cx="105.79" cy="80.71" rx="39.68" ry="36.01"/><path class="cls-2" d="M43.35,94.71c0-3-1.8-3.53-1.8-3.32s-.7,3.32-.7,3.32.47,5.54,1.48,7.68,12.77,1.78,15.76.35" transform="translate(0 0)"/><path class="cls-2" d="M47.64,100.73s-2.49-5.12-.9-9.89-3.19-4.64-3.19-4.64v2.35s-1.66,6.65-1.1,9a8.18,8.18,0,0,0,2.54,4.5" transform="translate(0 0)"/><path class="cls-2" d="M58.09,102.74l5.53-4-2.49-6.51s-.41-2.63-5.74-1.52-7.41.41-7.75.07c0,0-1.66,3.53.76,4.36A7.59,7.59,0,0,0,53,95.2L49,98.66s-.8-2-1.67-4.37c-.64-1.73-.29-2.94-1.55-4.66a5.1,5.1,0,0,0-2.25-1.08l-1.66-.27a14.75,14.75,0,0,1,1.87,5,24.39,24.39,0,0,0,1.45,6.43A7.55,7.55,0,0,0,46.67,101" transform="translate(0 0)"/><path class="cls-2" d="M168.13,94.71c0-3,1.8-3.53,1.8-3.32s.69,3.32.69,3.32-.46,5.54-1.47,7.68-12.77,1.78-15.76.35" transform="translate(0 0)"/><path class="cls-2" d="M163.84,100.73s2.49-5.12.9-9.89,3.19-4.64,3.19-4.64v2.35s1.66,6.65,1.1,9a8.18,8.18,0,0,1-2.54,4.5" transform="translate(0 0)"/><path class="cls-2" d="M153.39,102.74l-5.54-4,2.5-6.51s.41-2.63,5.74-1.52,7.41.41,7.75.07c0,0,1.66,3.53-.76,4.36a7.59,7.59,0,0,1-4.57.07l4,3.46s.79-2,1.67-4.37c.64-1.73.29-2.94,1.55-4.66a5.1,5.1,0,0,1,2.25-1.08l1.66-.27a14.75,14.75,0,0,0-1.87,5c-.21,2.28-1,5.88-1.46,6.43a7.29,7.29,0,0,1-1.45,1.25" transform="translate(0 0)"/><path class="cls-6" d="M76.07,74.09a8.92,8.92,0,0,1,.71-10.46c4.28-5.11,12.49-2.85,12.49-2.85a7.48,7.48,0,0,1,4.28,7.72c-.6,5.71-4.64,6.66-4.64,6.66S80.35,78.37,76.07,74.09Z" transform="translate(0 0)"/><path class="cls-6" d="M71.08,79.32" transform="translate(0 0)"/><path class="cls-7" d="M71.08,79.32s1.54-5.59,8.56-5.71,2.85.6,6.06,1.07,5.23,1.19,5,3.57-2.49,2.62-5.11,2.14-6.54.12-7.13.83-3.09.72-3.09.72-2.38,3.33-4.28,1S71.08,79.32,71.08,79.32Z" transform="translate(0 0)"/><path class="cls-6" d="M118.28,70.05s-1.55-6.3,4.28-8.8,11.53.36,12.36,2,3.06,8,1.29,10.83S119.7,77.78,118.28,70.05Z" transform="translate(0 0)"/><path class="cls-8" d="M97.35,86.69c3.81-5.47,14.63-5,16.76,0" transform="translate(0 0)"/><path class="cls-8" d="M102.64,83.84a.95.95,0,0,1-1.89,0" transform="translate(0 0)"/><path class="cls-8" d="M110.84,83.84a1,1,0,0,1-1.9,0" transform="translate(0 0)"/><circle cx="84.93" cy="67.41" r="0.79"/><circle cx="127.48" cy="67.21" r="0.79"/><path class="cls-3" d="M105.94,152.35c-11,4.18-22.88-9.09-22.88-9.09L89,125.07c-16.83,8.36-24.82,1.48-26.54-8.35s-4.33-11.06-4.33-11.06l8-4.91S72,118.68,80.47,118.19s7.24-3.4,7.24-3.4c-1.4,4.15-16.35-6.44-17.48-17.16,8,9.25,18.35,11.18,26.2,11l3.09,17.56" transform="translate(0 0)"/><path class="cls-3" d="M105.09,152.35c11,4.18,22.88-9.09,22.88-9.09l-5.9-18.19c16.83,8.36,24.82,1.48,26.54-8.35s4.33-11.06,4.33-11.06l-8-4.91s-5.9,17.93-14.37,17.44-7.23-3.4-7.23-3.4c1.4,4.15,16.35-6.44,17.48-17.16-8.06,9.25-18.35,11.18-26.2,11l-3.09,17.56" transform="translate(0 0)"/><path class="cls-7" d="M121.25,77.54s.47-2.5,5.94-2.86c0,0,8-4.39,13.08,2.86s-2.14,5.7-4.52,4.52a25.54,25.54,0,0,0-5-1.79,14.33,14.33,0,0,1-7.13.12C119.82,79.44,121.25,77.54,121.25,77.54Z" transform="translate(0 0)"/><path class="cls-1" d="M184.63,131.21c-.6,0-1.2,0-1.77.07a12.26,12.26,0,0,0-5.65-2.85,5.35,5.35,0,0,0,.43-2.12,5.43,5.43,0,1,0-10.48,2c-4.48,1-7.64,3.28-7.64,6a2.06,2.06,0,0,0,0,.26,4.1,4.1,0,0,0-1.41-.26,4.15,4.15,0,1,0,4.15,4.15s0,0,0-.08a16.15,16.15,0,0,0,6.58,2.19,7.12,7.12,0,0,0,13.9-2.18v-.08c.61.05,1.23.08,1.87.08,5,0,9-1.6,9-3.57S189.6,131.21,184.63,131.21Z" transform="translate(0 0)"/><path class="cls-1" d="M138.5,147.39a6.91,6.91,0,0,0-2.87.62,18,18,0,0,0-25.23-9.42A13.63,13.63,0,0,0,94.91,141a24,24,0,0,0-33.53-2.74,14.94,14.94,0,0,0-10.58-5.5,8,8,0,1,0-14,5.87,10.44,10.44,0,0,0-2,6c0,6.62,6.44,12,14.39,12a17.14,17.14,0,0,0,3.54-.38c0,.12,0,.25,0,.38a24,24,0,0,0,38.36,19.21,12.18,12.18,0,0,0,21.48-4.38,18,18,0,0,0,23.16-10.75,7,7,0,1,0,2.74-13.39Z" transform="translate(0 0)"/></svg>