<svg id="Livello_1" data-name="Livello 1" xmlns="http://www.w3.org/2000/svg" viewBox="0 0 209.29 263.64"><path d="M154.24,103.46s57.45,64.5,54.08,83.79-87.9,78.14-93.53,75.48S19,260.07,2.07,220.62c0,0-2.81-10.15,0-37.48s6.27-48.46,6.27-48.46" transform="translate(0 0)" fill="#97dcfa" stroke="#000" stroke-linecap="round" stroke-linejoin="round" stroke-width="1.64"/><path d="M208.32,187.25c3.37-19.29-54.08-83.79-54.08-83.79l-7.69,1.65L102.89,156l11.9,106.74.5.08C124.14,262.79,205,206.11,208.32,187.25Z" transform="translate(0 0)" fill="#f799bf" stroke="#000" stroke-linecap="round" stroke-linejoin="round" stroke-width="1.64"/><path d="M13.35,138.9s39.45,8.46,47.9,11.28S93.8,159,102.89,156s24.37-17.09,24.37-17.09l27-19.72s8.45-8.89,0-15.72-53.07-12.7-53.07-12.7-25.34-5.88-35.45,0-52.37,37.42-52.37,37.42S2.07,136.09,13.35,138.9Z" transform="translate(0 0)" fill="#fff" stroke="#000" stroke-linecap="round" stroke-linejoin="round" stroke-width="1.64"/><path d="M86.61,102.27s-45.09,28.18-45.09,39.45,2.82,53.54,2.82,53.54a39.82,39.82,0,0,0-8.45,14.09s-8.45,8.45-8.45,11.27,9.7,2.82,18.94,0S58.43,216.8,57,206s-4.22-16.32-4.22-27.64-2.82-31,5.63-36.67,30.68-28.47,30.68-28.47l14,9.15s-27.8,16.5-27.8,36.23,3,45.09,3,45.09-3,14.08-5.84,16.9-6.06,5.87-7.26,10,18.53,1.29,21.35-1.52,8.45-2.82,5.64-16.91l-2.82-8.46s-2.82-42.26,0-50.72,22.41-20.55,25.36-25.36c3.88-6.32-2.82-16.9-2.82-16.9Z" transform="translate(0 0)" fill="#00ffc0" stroke="#000" stroke-linecap="round" stroke-linejoin="round" stroke-width="1.64"/><path d="M104.18,129.72l-17.6,15.11a7.86,7.86,0,0,1-7.67,1.48L25.22,127.93,52.8,106.49l50.34,17.7A3.25,3.25,0,0,1,104.18,129.72Z" transform="translate(0 0)" fill="#97dcfa" stroke="#000" stroke-linecap="round" stroke-linejoin="round" stroke-width="1.64"/><path d="M104.18,127.92,86.58,143a7.86,7.86,0,0,1-7.67,1.48L25.22,126.14,52.8,104.69l50.34,17.71A3.24,3.24,0,0,1,104.18,127.92Z" transform="translate(0 0)" fill="#f799bf" stroke="#000" stroke-linecap="round" stroke-linejoin="round" stroke-width="1.64"/><path d="M25.57,86.93,76.35,99.27a5,5,0,0,1,3.8,4.94v35.6a3.45,3.45,0,0,1-4.43,3.38L30.09,129a7.77,7.77,0,0,1-5.35-6.55L21,91.11A3.75,3.75,0,0,1,25.57,86.93Z" transform="translate(0 0)" fill="#97dcfa" stroke="#000" stroke-linecap="round" stroke-linejoin="round" stroke-width="1.64"/><path d="M23.57,89.37l50.78,12a5,5,0,0,1,3.81,4.81V140.8a3.44,3.44,0,0,1-4.44,3.29L28.09,130.26a7.62,7.62,0,0,1-5.35-6.37L19,93.44A3.72,3.72,0,0,1,23.57,89.37Z" transform="translate(0 0)" fill="#f799bf" stroke="#000" stroke-linecap="round" stroke-linejoin="round" stroke-width="1.64"/><path d="M88.62,55.57" transform="translate(0 0)" fill="none" stroke="#7474f3" stroke-linecap="round" stroke-linejoin="round" stroke-width="1.64"/><path d="M47.16,71.28s-33.81,14.08-31,22.54c0,0,1.78,1.05,6.53-3.7,0,0-3.71,3.7-.89,6.52S27.44,91,27.44,91s-2.82,8.45,0,8.45,4.14-9,4.14-9L52.8,75.82Z" transform="translate(0 0)" fill="#00ffc0" stroke="#000" stroke-linecap="round" stroke-linejoin="round" stroke-width="1.64"/><path d="M84.23,103V71.28s18.84-25.37,28.92-8.46,1.64,53.54,1.64,53.54S87.49,109.36,84.23,103Z" transform="translate(0 0)" fill="#f799bf" stroke="#000" stroke-linecap="round" stroke-linejoin="round" stroke-width="1.64"/><path d="M121.48,94s12.24,31.21,10.22,36.47c-4.07,10.57,3.54,10.42,3.09,3.4,0,0,.92,11.28,4.48,8.06,0,0-1.79-9.85-.89-7.16,1.71,5.13,1.77,7,4.59,7s-5.64-14.09-5.64-14.09l-5.63-16.9L126.06,91Z" transform="translate(0 0)" fill="#00ffc0" stroke="#000" stroke-linecap="round" stroke-linejoin="round" stroke-width="1.64"/><polyline points="117.61 67.82 134.51 91 111.97 96.64 108.44 82.23" fill="#f799bf" stroke="#000" stroke-linecap="round" stroke-linejoin="round" stroke-width="1.64"/><path d="M100.7,51.55l5.64,14.09c5.63,14.09,28.17,8.45,14.08-28.18S52.8,48.73,52.8,48.73C35.89,60,47.16,71.28,47.16,71.28s17,19.3,59.87-9.09" transform="translate(0 0)" fill="#00ffc0" stroke="#000" stroke-linecap="round" stroke-linejoin="round" stroke-width="1.64"/><path d="M55.6,31.86S47.16,37.51,50,43.14s19.13,14.06,42.27,0S117.6,31.78,117.6,31.78Z" transform="translate(0 0)" fill="#f799bf" stroke="#000" stroke-linecap="round" stroke-linejoin="round" stroke-width="1.64"/><path d="M56,31.73S58.63.29,86.61.83c23.1.45,31.17,30.9,31.17,30.9S81.94,47.86,56,31.73Z" transform="translate(0 0)" fill="#f799bf" stroke="#000" stroke-linecap="round" stroke-linejoin="round" stroke-width="1.64"/><line x1="52.8" y1="62.82" x2="65.72" y2="62.82" fill="#00ffc0" stroke="#000" stroke-linecap="round" stroke-linejoin="round" stroke-width="1.64"/><circle cx="88.66" cy="50.99" r="2.24"/><path d="M86.42,1.28,83.82.89C58.45,2.42,56,31.73,56,31.73c15.35,9.53,34.14,7.8,46.94,4.79C105,7.49,86.42,1.28,86.42,1.28Z" transform="translate(0 0)" fill="#fff" stroke="#000" stroke-linecap="round" stroke-linejoin="round" stroke-width="1.64"/><path d="M57,206c-.61-4.67-1.49-8.36-2.28-12-4.44,2.41-7.93,2-10.42.87,0,.21,0,.33,0,.33a39.82,39.82,0,0,0-8.45,14.09s-8.45,8.45-8.45,11.27,9.7,2.82,18.94,0S58.43,216.8,57,206Z" transform="translate(0 0)" fill="#f799bf" stroke="#000" stroke-linecap="round" stroke-linejoin="round" stroke-width="1.64"/><path d="M86.61,229.08c2.82-2.82,8.45-2.82,5.64-16.91l-2.77-8.3c-5.13,1.4-8.75,1.06-11.2.21-.49,2.2-3.21,14-5.76,16.54-2.82,2.82-6.06,5.87-7.26,10S83.79,231.89,86.61,229.08Z" transform="translate(0 0)" fill="#f799bf" stroke="#000" stroke-linecap="round" stroke-linejoin="round" stroke-width="1.64"/><path d="M44.32,194.93c0,.21,0,.33,0,.33a39.82,39.82,0,0,0-8.45,14.09s-8.45,8.45-8.45,11.27c0,1,1.25,1.66,3.28,1.94,5.89-.64,14.81-3.07,17.86-11.74,4.7-13.37,6.16-16.76,6.16-16.76C50.3,196.47,46.81,196.07,44.32,194.93Z" transform="translate(0 0)" fill="#fff" stroke="#000" stroke-linecap="round" stroke-linejoin="round" stroke-width="1.64"/><path d="M89.48,203.87c-5.13,1.4-8.75,1.06-11.2.21-.49,2.2-3.21,14-5.76,16.54-2.82,2.82-6.06,5.87-7.26,10a1.1,1.1,0,0,0,.6,1.31c5.8.15,15.42-1.06,17.88-10.27,0,0,3.48-10,5.89-17.31Z" transform="translate(0 0)" fill="#fff" stroke="#000" stroke-linecap="round" stroke-linejoin="round" stroke-width="1.64"/><path d="M41.91,198.36s2.41-.91,6,.88c0,0,.89,2.69-.9,2.69s-4.85-2-6.46-1.9S41.91,198.36,41.91,198.36Z" transform="translate(0 0)" fill="#f799bf" stroke="#000" stroke-linecap="round" stroke-linejoin="round" stroke-width="1.64"/><path d="M39.34,201.93s7.67.89,7.67,2.69,0,1.79-1.79,1.79-5-2.4-7-2.54C38.25,203.87,38,202.82,39.34,201.93Z" transform="translate(0 0)" fill="#f799bf" stroke="#000" stroke-linecap="round" stroke-linejoin="round" stroke-width="1.64"/><path d="M53.28,207.3l-.22,3.28s-5.17.64-6,9.84c1.31-.41,2.48-.78,3.53-1.15,0,0,.24-7.45,4.16-7.47,0,0-1.14-5.25,2.28-5.77-.16-1.22-.33-2.36-.52-3.47A5.73,5.73,0,0,0,53.28,207.3Z" transform="translate(0 0)" fill="#97dcfa" stroke="#000" stroke-linecap="round" stroke-linejoin="round" stroke-width="1.64"/><path d="M92.77,215.37c-.12-1-.29-2-.52-3.2l-.08-.24a6.09,6.09,0,0,0-2.25,4.62V220s-5.18,1-5.51,10.32a6.69,6.69,0,0,0,2.19-1.2A9.32,9.32,0,0,1,88,228c.11-2.18.71-6.63,3.77-6.86C91.76,221.11,90.53,216.84,92.77,215.37Z" transform="translate(0 0)" fill="#97dcfa" stroke="#000" stroke-linecap="round" stroke-linejoin="round" stroke-width="1.64"/><path d="M76.82,210s3.33,1.83,6,.94c0,0,0,2.68-.9,2.68s-6.26-.59-5.81-1.19Z" transform="translate(0 0)" fill="#f799bf" stroke="#000" stroke-linecap="round" stroke-linejoin="round" stroke-width="1.64"/><path d="M75.37,215.45s3.89,1.71,5.68.81c0,0-.47,3.34-1.58,3s-5.31-1.39-5.31-1.39Z" transform="translate(0 0)" fill="#f799bf" stroke="#000" stroke-linecap="round" stroke-linejoin="round" stroke-width="1.64"/></svg>