<svg width="25" height="25" viewBox="0 0 25 25" fill="none" xmlns="http://www.w3.org/2000/svg">
<path d="M21.2891 11.5723H7.0044L15.5542 4.15039C15.6909 4.03076 15.6079 3.80859 15.4272 3.80859H13.2666C13.1714 3.80859 13.0811 3.84277 13.0103 3.90381L3.78418 11.9092C3.69968 11.9824 3.63191 12.073 3.58547 12.1747C3.53902 12.2764 3.51498 12.387 3.51498 12.4988C3.51498 12.6106 3.53902 12.7211 3.58547 12.8229C3.63191 12.9246 3.69968 13.0151 3.78418 13.0884L13.064 21.1426C13.1006 21.1743 13.1445 21.1914 13.1909 21.1914H15.4248C15.6055 21.1914 15.6885 20.9668 15.5518 20.8496L7.0044 13.4277H21.2891C21.3965 13.4277 21.4844 13.3398 21.4844 13.2324V11.7676C21.4844 11.6602 21.3965 11.5723 21.2891 11.5723Z" fill="#F2F2F2"/>
</svg>
