<svg fill="none" xmlns="http://www.w3.org/2000/svg" viewBox="0 0 25 25">
  <g clip-path="url(#a)">
    <path fill-rule="evenodd" clip-rule="evenodd" d="M25 12.5C25 19.403 19.403 25 12.5 25S0 19.403 0 12.5 5.597 0 12.5 0 25 5.597 25 12.5ZM12.948 9.228c-1.216.505-3.646 1.552-7.29 3.14-.591.235-.902.465-.93.69-.048.382.43.532 1.077.735.089.028.18.056.274.087.639.207 1.497.45 1.943.46.405.008.857-.159 1.356-.5 3.404-2.3 5.162-3.46 5.272-3.486.078-.018.186-.04.26.025.072.065.065.188.058.221-.048.201-1.917 1.94-2.886 2.84a29.3 29.3 0 0 0-.56.525c-.097.1-.197.197-.293.29-.594.571-1.037 1 .025 1.7.51.337.919.615 1.326.892.445.303.889.605 1.464.982.146.096.285.195.422.292.517.37.983.7 1.558.649.333-.032.68-.345.854-1.282.414-2.214 1.228-7.01 1.417-8.987.011-.164.004-.329-.021-.492a.527.527 0 0 0-.18-.338c-.148-.122-.38-.148-.484-.146-.47.008-1.19.26-4.662 1.703Z" fill="#F2F2F2"/>
  </g>
  <defs>
    <clipPath id="a">
      <path fill="#fff" d="M0 0h25v25H0z"/>
    </clipPath>
  </defs>
</svg>
