<svg fill="none" xmlns="http://www.w3.org/2000/svg" viewBox="0 0 25 21">
  <path d="M24.628 3.143a9.717 9.717 0 0 1-2.786.763 4.865 4.865 0 0 0 2.133-2.685 9.687 9.687 0 0 1-3.081 1.177 4.854 4.854 0 0 0-8.269 4.427 13.78 13.78 0 0 1-10.002-5.07 4.85 4.85 0 0 0-.656 2.439 4.854 4.854 0 0 0 2.158 4.04 4.84 4.84 0 0 1-2.198-.608v.063a4.854 4.854 0 0 0 3.893 4.758 4.888 4.888 0 0 1-2.192.083A4.855 4.855 0 0 0 8.161 15.9a9.737 9.737 0 0 1-6.027 2.078c-.387 0-.773-.022-1.158-.068a13.724 13.724 0 0 0 7.438 2.18c8.927 0 13.807-7.393 13.807-13.806 0-.208-.005-.418-.015-.627a9.865 9.865 0 0 0 2.42-2.51l.002-.003Z" fill="#F2F2F2"/>
</svg>
