<svg fill="none" xmlns="http://www.w3.org/2000/svg" viewBox="0 0 25 25">
  <g clip-path="url(#a)">
    <path d="M11.25 0a11.25 11.25 0 1 0 0 22.5 11.25 11.25 0 0 0 0-22.5Zm4.325 14.938c0 1.837-1 4.124-5.075 5.874.375-5.212-3.15-4.612-4-6.25a4.062 4.062 0 0 1 2.25-3.187 10.612 10.612 0 0 1-5.225-2.5c.063.588.349 1.13.8 1.512A5.225 5.225 0 0 1 1.9 8.512a9.925 9.925 0 0 1 9.063-7.037c-1.05 1.725-1.875 5.162 0 6.963-1.925.312-3.138-2.188-4.2-1.2-1.413 1.324.412 3.137 4.274 3.85 4.113.737 4.575 1.975 4.538 3.85Zm1.675-5c-.4-1.388.775-2.788 2.113-3.926a9.087 9.087 0 0 1 1.05 8.35C19.45 12 17.7 11.463 17.25 9.9v.037Z" fill="#F2F2F2"/>
  </g>
  <defs>
    <clipPath id="a">
      <path fill="#fff" d="M0 0h25v25H0z"/>
    </clipPath>
  </defs>
</svg>
